<?xml version="1.0" encoding="UTF-8"?>
<svg id="Layer_2" data-name="Layer 2" xmlns="http://www.w3.org/2000/svg" xmlns:xlink="http://www.w3.org/1999/xlink" viewBox="0 0 754.81 284.37">
  <defs>
    <style>
      .cls-1 {
        fill: #fff;
      }

      .cls-2 {
        fill: url(#New_Gradient_Swatch);
      }

      .cls-3 {
        fill: #bcbec0;
      }

      .cls-4 {
        fill: url(#linear-gradient);
      }
    </style>
    <linearGradient id="linear-gradient" x1="20.19" y1="71.36" x2="104.25" y2="-12.7" gradientUnits="userSpaceOnUse">
      <stop offset="0" stop-color="#bc3d2f"/>
      <stop offset="1" stop-color="#8c43ac"/>
    </linearGradient>
    <linearGradient id="New_Gradient_Swatch" data-name="New Gradient Swatch" x1="6.2" y1="127.65" x2="754.81" y2="127.65" gradientUnits="userSpaceOnUse">
      <stop offset="0" stop-color="#5485ee"/>
      <stop offset="1" stop-color="#42d7dd"/>
    </linearGradient>
  </defs>
  <g id="Layer_1-2" data-name="Layer 1">
    <g>
      <g>
        <path class="cls-4" d="m25.58,0h80.77C120.47,0,131.93,11.46,131.93,25.58h0c0,14.12-11.46,25.58-25.58,25.58H0v-25.58C0,11.46,11.46,0,25.58,0Z"/>
        <g>
          <path class="cls-1" d="m51.23,19.98l-6.59,17.87h-4.02l-4.62-12.32-4.69,12.32h-4.02l-6.56-17.87h3.95l4.72,13.19,4.92-13.19h3.51l4.82,13.25,4.85-13.25h3.71Z"/>
          <path class="cls-1" d="m53.55,14.53c0-1.41,1.14-2.51,2.68-2.51s2.68,1.04,2.68,2.41c0,1.47-1.1,2.61-2.68,2.61s-2.68-1.11-2.68-2.51Zm.57,5.46h4.18v17.87h-4.18v-17.87Z"/>
          <path class="cls-1" d="m81.41,27.61v10.24h-4.18v-9.71c0-3.18-1.57-4.72-4.25-4.72-2.98,0-4.99,1.81-4.99,5.39v9.04h-4.18v-17.87h3.98v2.31c1.37-1.64,3.55-2.51,6.16-2.51,4.28,0,7.47,2.44,7.47,7.83Z"/>
          <path class="cls-1" d="m104.42,13.02v24.84h-4.02v-2.31c-1.41,1.71-3.48,2.54-5.93,2.54-5.19,0-9.04-3.62-9.04-9.17s3.85-9.14,9.04-9.14c2.31,0,4.35.77,5.76,2.41v-9.17h4.18Zm-4.12,15.9c0-3.41-2.31-5.59-5.32-5.59s-5.32,2.18-5.32,5.59,2.31,5.59,5.32,5.59,5.32-2.17,5.32-5.59Z"/>
        </g>
      </g>
      <g>
        <g>
          <path d="m57.39,160.76c10.81,0,19.65-4.28,26.51-12.83l14.1,14.52c-11.19,12.6-24.37,18.89-39.55,18.89s-27.68-4.79-37.51-14.38c-9.82-9.59-14.73-21.69-14.73-36.31s5.01-26.81,15.02-36.59c10.01-9.78,22.25-14.66,36.73-14.66,16.17,0,29.7,6.16,40.61,18.47l-13.68,15.51c-6.96-8.65-15.6-12.97-25.94-12.97-8.27,0-15.35,2.7-21.22,8.11-5.88,5.41-8.81,12.69-8.81,21.86s2.77,16.52,8.32,22.07c5.55,5.55,12.27,8.32,20.16,8.32Z"/>
          <path d="m134.66,139.52v40.89h-21v-105h21v37.36c6.42-6.51,13.62-9.76,21.6-9.76s14.71,2.83,20.18,8.49c5.48,5.66,8.22,13.21,8.22,22.64v46.27h-21v-41.45c0-11.65-4.33-17.48-13-17.48-4.29,0-8.02,1.53-11.21,4.58-3.19,3.06-4.79,7.54-4.79,13.47Z"/>
          <path d="m268.66,180.41h-19v-9.23c-5.49,6.91-12.28,10.37-20.38,10.37s-14.89-2.34-20.38-7.03c-5.49-4.69-8.24-10.93-8.24-18.74s2.84-13.66,8.52-17.54c5.68-3.88,13.44-5.82,23.29-5.82h15.18v-.43c0-8.14-4.25-12.21-12.74-12.21-3.64,0-7.49.73-11.55,2.2-4.06,1.47-7.49,3.29-10.29,5.47l-9.38-13.78c9.89-7.29,21.19-10.93,33.88-10.93,9.15,0,16.61,2.32,22.4,6.96,5.79,4.64,8.68,11.98,8.68,22.01v48.71Zm-21-29.33v-3.67h-13.25c-8.46,0-12.69,2.63-12.69,7.9,0,2.73,1.01,4.82,3.03,6.27,2.02,1.46,4.91,2.19,8.67,2.19s7.07-1.15,9.94-3.45c2.87-2.3,4.3-5.38,4.3-9.24Z"/>
          <path d="m313.66,119.41v34.35c0,2.87.74,5.12,2.23,6.74,1.48,1.62,3.24,2.43,5.29,2.43,3.89,0,7.18-1.76,9.87-5.29l7.79,14.6c-6.49,5.93-13.33,8.9-20.51,8.9s-13.26-2.36-18.22-7.09c-4.96-4.73-7.44-11.17-7.44-19.33v-35.33h-9v-15h9v-23h21v23h18v15h-18Z"/>
          <path d="m458.66,81.41v19h-45v22h43v19h-43v39h-23v-99h68Z"/>
          <path d="m477.77,94.7c-2.4-2.4-3.6-5.33-3.6-8.81s1.2-6.42,3.6-8.81c2.4-2.4,5.33-3.6,8.81-3.6s6.42,1.2,8.81,3.6c2.4,2.4,3.6,5.34,3.6,8.81s-1.2,6.42-3.6,8.81c-2.4,2.4-5.34,3.6-8.81,3.6s-6.42-1.2-8.81-3.6Zm18.89,85.7h-21v-76h21v76Z"/>
          <path d="m538.66,180.41h-21v-105h21v105Z"/>
          <path d="m585.66,119.41v33.7c0,3.01.78,5.37,2.33,7.07,1.55,1.7,3.4,2.55,5.54,2.55,4.08,0,7.53-1.84,10.34-5.54l8.16,15.3c-6.8,6.22-13.96,9.32-21.49,9.32s-13.89-2.48-19.09-7.43c-5.2-4.95-7.8-11.7-7.8-20.25v-34.72h-9v-15h9v-23h22v23h18v15h-18Z"/>
          <path d="m688.46,168.87c-8.55,8.09-18.59,12.13-30.1,12.13s-21.03-3.55-28.55-10.65c-7.52-7.1-11.28-16.61-11.28-28.55s3.83-21.43,11.49-28.48c7.66-7.05,16.71-10.58,27.14-10.58s19.29,3.15,26.58,9.45c7.28,6.3,10.93,14.95,10.93,25.94v11.28h-55.27c.66,4.14,2.82,7.52,6.49,10.15,3.67,2.63,7.8,3.95,12.41,3.95,7.42,0,13.54-2.49,18.33-7.47l11.84,12.83Zm-20.55-44.89c-2.92-2.44-6.46-3.67-10.65-3.67s-8.01,1.27-11.49,3.81c-3.48,2.54-5.5,5.97-6.06,10.29h33.28c-.47-4.51-2.16-7.99-5.08-10.43Z"/>
          <path d="m750.66,123.41c-6.38,0-11.14,2.28-14.29,6.84-3.14,4.56-4.71,10.58-4.71,18.06v32.1h-21v-76h21v10.22c2.76-3.17,6.21-5.85,10.36-8.06,4.14-2.21,8.36-3.36,12.64-3.45l.14,20.3h-4.14Z"/>
        </g>
        <g>
          <path class="cls-2" d="m57.39,160.76c10.81,0,19.65-4.28,26.51-12.83l14.1,14.52c-11.19,12.6-24.37,18.89-39.55,18.89s-27.68-4.79-37.51-14.38c-9.82-9.59-14.73-21.69-14.73-36.31s5.01-26.81,15.02-36.59c10.01-9.78,22.25-14.66,36.73-14.66,16.17,0,29.7,6.16,40.61,18.47l-13.68,15.51c-6.96-8.65-15.6-12.97-25.94-12.97-8.27,0-15.35,2.7-21.22,8.11-5.88,5.41-8.81,12.69-8.81,21.86s2.77,16.52,8.32,22.07c5.55,5.55,12.27,8.32,20.16,8.32Z"/>
          <path class="cls-2" d="m134.66,139.52v40.89h-21v-105h21v37.36c6.42-6.51,13.62-9.76,21.6-9.76s14.71,2.83,20.18,8.49c5.48,5.66,8.22,13.21,8.22,22.64v46.27h-21v-41.45c0-11.65-4.33-17.48-13-17.48-4.29,0-8.02,1.53-11.21,4.58-3.19,3.06-4.79,7.54-4.79,13.47Z"/>
          <path class="cls-2" d="m268.66,180.41h-19v-9.23c-5.49,6.91-12.28,10.37-20.38,10.37s-14.89-2.34-20.38-7.03c-5.49-4.69-8.24-10.93-8.24-18.74s2.84-13.66,8.52-17.54c5.68-3.88,13.44-5.82,23.29-5.82h15.18v-.43c0-8.14-4.25-12.21-12.74-12.21-3.64,0-7.49.73-11.55,2.2-4.06,1.47-7.49,3.29-10.29,5.47l-9.38-13.78c9.89-7.29,21.19-10.93,33.88-10.93,9.15,0,16.61,2.32,22.4,6.96,5.79,4.64,8.68,11.98,8.68,22.01v48.71Zm-21-29.33v-3.67h-13.25c-8.46,0-12.69,2.63-12.69,7.9,0,2.73,1.01,4.82,3.03,6.27,2.02,1.46,4.91,2.19,8.67,2.19s7.07-1.15,9.94-3.45c2.87-2.3,4.3-5.38,4.3-9.24Z"/>
          <path class="cls-2" d="m313.66,119.41v34.35c0,2.87.74,5.12,2.23,6.74,1.48,1.62,3.24,2.43,5.29,2.43,3.89,0,7.18-1.76,9.87-5.29l7.79,14.6c-6.49,5.93-13.33,8.9-20.51,8.9s-13.26-2.36-18.22-7.09c-4.96-4.73-7.44-11.17-7.44-19.33v-35.33h-9v-15h9v-23h21v23h18v15h-18Z"/>
          <path class="cls-2" d="m458.66,81.41v19h-45v22h43v19h-43v39h-23v-99h68Z"/>
          <path class="cls-2" d="m477.77,94.7c-2.4-2.4-3.6-5.33-3.6-8.81s1.2-6.42,3.6-8.81c2.4-2.4,5.33-3.6,8.81-3.6s6.42,1.2,8.81,3.6c2.4,2.4,3.6,5.34,3.6,8.81s-1.2,6.42-3.6,8.81c-2.4,2.4-5.34,3.6-8.81,3.6s-6.42-1.2-8.81-3.6Zm18.89,85.7h-21v-76h21v76Z"/>
          <path class="cls-2" d="m538.66,180.41h-21v-105h21v105Z"/>
          <path class="cls-2" d="m585.66,119.41v33.7c0,3.01.78,5.37,2.33,7.07,1.55,1.7,3.4,2.55,5.54,2.55,4.08,0,7.53-1.84,10.34-5.54l8.16,15.3c-6.8,6.22-13.96,9.32-21.49,9.32s-13.89-2.48-19.09-7.43c-5.2-4.95-7.8-11.7-7.8-20.25v-34.72h-9v-15h9v-23h22v23h18v15h-18Z"/>
          <path class="cls-2" d="m688.46,168.87c-8.55,8.09-18.59,12.13-30.1,12.13s-21.03-3.55-28.55-10.65c-7.52-7.1-11.28-16.61-11.28-28.55s3.83-21.43,11.49-28.48c7.66-7.05,16.71-10.58,27.14-10.58s19.29,3.15,26.58,9.45c7.28,6.3,10.93,14.95,10.93,25.94v11.28h-55.27c.66,4.14,2.82,7.52,6.49,10.15,3.67,2.63,7.8,3.95,12.41,3.95,7.42,0,13.54-2.49,18.33-7.47l11.84,12.83Zm-20.55-44.89c-2.92-2.44-6.46-3.67-10.65-3.67s-8.01,1.27-11.49,3.81c-3.48,2.54-5.5,5.97-6.06,10.29h33.28c-.47-4.51-2.16-7.99-5.08-10.43Z"/>
          <path class="cls-2" d="m750.66,123.41c-6.38,0-11.14,2.28-14.29,6.84-3.14,4.56-4.71,10.58-4.71,18.06v32.1h-21v-76h21v10.22c2.76-3.17,6.21-5.85,10.36-8.06,4.14-2.21,8.36-3.36,12.64-3.45l.14,20.3h-4.14Z"/>
        </g>
      </g>
      <rect class="cls-3" x="6.2" y="215.04" width="748.14" height="69.33" rx="34.67" ry="34.67"/>
      <g>
        <path class="cls-1" d="m94.16,263.17v-25.2h11.52c2.3,0,4.29.37,5.96,1.12,1.67.74,2.96,1.82,3.87,3.22.91,1.4,1.37,3.07,1.37,4.99s-.46,3.54-1.37,4.93c-.91,1.39-2.2,2.47-3.87,3.22s-3.65,1.13-5.96,1.13h-7.56l3.17-3.1v9.68h-7.13Zm7.13-8.93l-3.17-3.28h7.13c1.49,0,2.6-.32,3.33-.97.73-.65,1.1-1.55,1.1-2.7s-.37-2.09-1.1-2.74c-.73-.65-1.84-.97-3.33-.97h-7.13l3.17-3.28v13.93Z"/>
        <path class="cls-1" d="m127.57,257.66h13.18v5.51h-20.23v-25.2h19.76v5.51h-12.71v14.18Zm-.5-9.94h11.7v5.33h-11.7v-5.33Z"/>
        <path class="cls-1" d="m144.89,263.17v-25.2h11.52c2.3,0,4.29.37,5.96,1.12,1.67.74,2.96,1.82,3.87,3.22.91,1.4,1.37,3.07,1.37,4.99s-.46,3.53-1.37,4.91-2.2,2.44-3.87,3.17c-1.67.73-3.65,1.1-5.96,1.1h-7.56l3.17-2.99v9.68h-7.13Zm7.13-8.93l-3.17-3.28h7.13c1.49,0,2.6-.32,3.33-.97.73-.65,1.1-1.55,1.1-2.7s-.37-2.09-1.1-2.74c-.73-.65-1.84-.97-3.33-.97h-7.13l3.17-3.28v13.93Zm8.46,8.93l-6.26-9.18h7.6l6.3,9.18h-7.63Z"/>
        <path class="cls-1" d="m180.56,263.68c-2.06,0-4.05-.26-5.96-.77-1.91-.52-3.46-1.18-4.66-2l2.34-5.26c1.13.72,2.43,1.31,3.91,1.78s2.95.7,4.41.7c.98,0,1.78-.09,2.38-.27.6-.18,1.04-.42,1.31-.72.28-.3.41-.65.41-1.06,0-.58-.26-1.03-.79-1.37-.53-.34-1.21-.61-2.05-.83s-1.77-.43-2.79-.65c-1.02-.22-2.04-.49-3.06-.83-1.02-.34-1.95-.77-2.79-1.31-.84-.54-1.52-1.25-2.05-2.12-.53-.88-.79-1.99-.79-3.33,0-1.51.41-2.88,1.24-4.1.83-1.22,2.07-2.21,3.73-2.95,1.66-.74,3.72-1.12,6.19-1.12,1.66,0,3.28.19,4.88.56,1.6.37,3.02.92,4.27,1.64l-2.2,5.29c-1.2-.65-2.39-1.13-3.56-1.46-1.18-.32-2.32-.49-3.42-.49-.98,0-1.78.1-2.38.31s-1.03.47-1.3.81c-.26.34-.4.72-.4,1.15,0,.55.26.99.77,1.31.52.32,1.2.59,2.05.79.85.2,1.79.41,2.81.63,1.02.22,2.04.49,3.06.81,1.02.32,1.95.76,2.79,1.3s1.52,1.25,2.03,2.12.77,1.97.77,3.29c0,1.46-.41,2.81-1.24,4.05-.83,1.24-2.06,2.23-3.71,2.97-1.64.74-3.71,1.12-6.21,1.12Z"/>
        <path class="cls-1" d="m207.89,263.68c-2.02,0-3.88-.32-5.58-.97-1.71-.65-3.19-1.57-4.45-2.75-1.26-1.19-2.24-2.57-2.93-4.16s-1.04-3.32-1.04-5.22.35-3.64,1.04-5.22,1.67-2.97,2.93-4.16c1.26-1.19,2.74-2.11,4.45-2.75,1.7-.65,3.56-.97,5.58-.97s3.91.32,5.6.97c1.69.65,3.16,1.57,4.41,2.75,1.25,1.19,2.23,2.57,2.93,4.16s1.06,3.32,1.06,5.22-.35,3.64-1.06,5.24c-.71,1.6-1.69,2.98-2.93,4.16-1.25,1.18-2.72,2.09-4.41,2.74-1.69.65-3.56.97-5.6.97Zm0-5.9c.96,0,1.85-.17,2.68-.5.83-.34,1.55-.82,2.16-1.46.61-.64,1.09-1.4,1.44-2.29.35-.89.52-1.87.52-2.95s-.17-2.09-.52-2.97c-.35-.88-.83-1.63-1.44-2.27-.61-.64-1.33-1.12-2.16-1.46s-1.72-.5-2.68-.5-1.85.17-2.68.5-1.55.82-2.16,1.46c-.61.64-1.09,1.39-1.44,2.27-.35.88-.52,1.87-.52,2.97s.17,2.06.52,2.95c.35.89.83,1.65,1.44,2.29.61.64,1.33,1.12,2.16,1.46.83.34,1.72.5,2.68.5Z"/>
        <path class="cls-1" d="m225.81,263.17v-25.2h5.87l13.9,16.78h-2.77v-16.78h6.98v25.2h-5.87l-13.9-16.78h2.77v16.78h-6.98Z"/>
        <path class="cls-1" d="m251.99,263.17l11.12-25.2h7.02l11.16,25.2h-7.42l-8.71-21.71h2.81l-8.71,21.71h-7.27Zm6.08-4.9l1.84-5.26h12.31l1.84,5.26h-15.98Z"/>
        <path class="cls-1" d="m283.49,263.17v-25.2h7.13v19.55h12.02v5.65h-19.15Z"/>
        <path class="cls-1" d="m328.84,263.68c-1.99,0-3.83-.32-5.53-.95-1.69-.64-3.16-1.54-4.39-2.72-1.24-1.18-2.2-2.56-2.9-4.16-.7-1.6-1.04-3.35-1.04-5.27s.35-3.68,1.04-5.27c.7-1.6,1.66-2.98,2.9-4.16,1.24-1.18,2.7-2.08,4.39-2.72,1.69-.64,3.53-.95,5.53-.95,2.33,0,4.41.41,6.25,1.22,1.84.82,3.37,1.99,4.59,3.53l-4.54,4.1c-.82-.96-1.71-1.69-2.68-2.2s-2.06-.76-3.26-.76c-1.03,0-1.98.17-2.84.5-.86.34-1.6.82-2.21,1.46-.61.64-1.09,1.4-1.44,2.29-.35.89-.52,1.87-.52,2.95s.17,2.06.52,2.95c.35.89.83,1.65,1.44,2.29.61.64,1.35,1.12,2.21,1.46.86.34,1.81.5,2.84.5,1.2,0,2.29-.25,3.26-.76s1.87-1.24,2.68-2.2l4.54,4.1c-1.22,1.51-2.75,2.68-4.59,3.51s-3.92,1.24-6.25,1.24Z"/>
        <path class="cls-1" d="m350.16,263.17h-7.13v-25.2h7.13v25.2Zm10.22-9.83h-10.73v-5.9h10.73v5.9Zm-.5-15.37h7.13v25.2h-7.13v-25.2Z"/>
        <path class="cls-1" d="m369.2,263.17l11.12-25.2h7.02l11.16,25.2h-7.42l-8.71-21.71h2.81l-8.71,21.71h-7.27Zm6.08-4.9l1.84-5.26h12.31l1.84,5.26h-15.98Z"/>
        <path class="cls-1" d="m404.8,263.17v-19.55h-7.74v-5.65h22.57v5.65h-7.7v19.55h-7.13Z"/>
        <path class="cls-1" d="m441.99,263.68c-2.06,0-4.05-.26-5.96-.77-1.91-.52-3.46-1.18-4.66-2l2.34-5.26c1.13.72,2.43,1.31,3.91,1.78s2.95.7,4.41.7c.98,0,1.78-.09,2.38-.27.6-.18,1.04-.42,1.31-.72.28-.3.41-.65.41-1.06,0-.58-.26-1.03-.79-1.37-.53-.34-1.21-.61-2.05-.83s-1.77-.43-2.79-.65c-1.02-.22-2.04-.49-3.06-.83-1.02-.34-1.95-.77-2.79-1.31-.84-.54-1.52-1.25-2.05-2.12-.53-.88-.79-1.99-.79-3.33,0-1.51.41-2.88,1.24-4.1.83-1.22,2.07-2.21,3.73-2.95,1.66-.74,3.72-1.12,6.19-1.12,1.66,0,3.28.19,4.88.56,1.6.37,3.02.92,4.27,1.64l-2.2,5.29c-1.2-.65-2.39-1.13-3.56-1.46-1.18-.32-2.32-.49-3.42-.49-.98,0-1.78.1-2.38.31s-1.03.47-1.3.81c-.26.34-.4.72-.4,1.15,0,.55.26.99.77,1.31.52.32,1.2.59,2.05.79.85.2,1.79.41,2.81.63,1.02.22,2.04.49,3.06.81,1.02.32,1.95.76,2.79,1.3s1.52,1.25,2.03,2.12.77,1.97.77,3.29c0,1.46-.41,2.81-1.24,4.05-.83,1.24-2.06,2.23-3.71,2.97-1.64.74-3.71,1.12-6.21,1.12Z"/>
        <path class="cls-1" d="m469.17,263.68c-1.99,0-3.83-.32-5.53-.95-1.69-.64-3.16-1.54-4.39-2.72-1.24-1.18-2.2-2.56-2.9-4.16-.7-1.6-1.04-3.35-1.04-5.27s.35-3.68,1.04-5.27c.7-1.6,1.66-2.98,2.9-4.16,1.24-1.18,2.7-2.08,4.39-2.72,1.69-.64,3.53-.95,5.53-.95,2.33,0,4.41.41,6.25,1.22,1.84.82,3.37,1.99,4.59,3.53l-4.54,4.1c-.82-.96-1.71-1.69-2.68-2.2s-2.06-.76-3.26-.76c-1.03,0-1.98.17-2.84.5-.86.34-1.6.82-2.21,1.46-.61.64-1.09,1.4-1.44,2.29-.35.89-.52,1.87-.52,2.95s.17,2.06.52,2.95c.35.89.83,1.65,1.44,2.29.61.64,1.35,1.12,2.21,1.46.86.34,1.81.5,2.84.5,1.2,0,2.29-.25,3.26-.76s1.87-1.24,2.68-2.2l4.54,4.1c-1.22,1.51-2.75,2.68-4.59,3.51s-3.92,1.24-6.25,1.24Z"/>
        <path class="cls-1" d="m479.9,263.17l11.12-25.2h7.02l11.16,25.2h-7.42l-8.71-21.71h2.81l-8.71,21.71h-7.27Zm6.08-4.9l1.84-5.26h12.31l1.84,5.26h-15.98Z"/>
        <path class="cls-1" d="m517.74,263.17l-10.76-25.2h7.7l9.07,21.82h-4.54l9.29-21.82h7.06l-10.8,25.2h-7.02Z"/>
        <path class="cls-1" d="m544.27,257.66h13.18v5.51h-20.23v-25.2h19.76v5.51h-12.71v14.18Zm-.5-9.94h11.7v5.33h-11.7v-5.33Z"/>
        <path class="cls-1" d="m561.58,263.17v-25.2h5.87l13.9,16.78h-2.77v-16.78h6.98v25.2h-5.87l-13.9-16.78h2.77v16.78h-6.98Z"/>
        <path class="cls-1" d="m603.38,263.68c-1.99,0-3.84-.32-5.54-.95s-3.17-1.54-4.41-2.72c-1.24-1.18-2.2-2.56-2.9-4.16-.7-1.6-1.04-3.35-1.04-5.27s.35-3.68,1.04-5.27c.7-1.6,1.67-2.98,2.92-4.16,1.25-1.18,2.73-2.08,4.45-2.72s3.59-.95,5.63-.95c2.38,0,4.5.4,6.37,1.19s3.42,1.93,4.64,3.42l-4.54,4.1c-.86-.94-1.79-1.64-2.79-2.11-1-.47-2.11-.7-3.33-.7-1.08,0-2.06.17-2.95.5s-1.64.82-2.27,1.46c-.62.64-1.11,1.39-1.46,2.27-.35.88-.52,1.87-.52,2.97s.17,2.03.52,2.92c.35.89.83,1.65,1.46,2.29.62.64,1.37,1.13,2.25,1.48.88.35,1.84.52,2.9.52s2.09-.17,3.1-.52c1.01-.35,2.03-.94,3.06-1.78l4,5c-1.44,1.03-3.11,1.82-5,2.38-1.9.55-3.76.83-5.58.83Zm4.28-4.14v-9.5h6.3v10.44l-6.3-.94Z"/>
        <path class="cls-1" d="m625.73,257.66h13.18v5.51h-20.23v-25.2h19.76v5.51h-12.71v14.18Zm-.5-9.94h11.7v5.33h-11.7v-5.33Z"/>
        <path class="cls-1" d="m643.05,263.17v-25.2h11.52c2.3,0,4.29.37,5.96,1.12,1.67.74,2.96,1.82,3.87,3.22.91,1.4,1.37,3.07,1.37,4.99s-.46,3.53-1.37,4.91-2.2,2.44-3.87,3.17c-1.67.73-3.65,1.1-5.96,1.1h-7.56l3.17-2.99v9.68h-7.13Zm7.13-8.93l-3.17-3.28h7.13c1.49,0,2.6-.32,3.33-.97.73-.65,1.1-1.55,1.1-2.7s-.37-2.09-1.1-2.74c-.73-.65-1.84-.97-3.33-.97h-7.13l3.17-3.28v13.93Zm8.46,8.93l-6.26-9.18h7.6l6.3,9.18h-7.63Z"/>
      </g>
    </g>
  </g>
</svg>